<svg id="Layer_1" data-name="Layer 1" xmlns="http://www.w3.org/2000/svg" viewBox="0 0 397.06 178.97"><defs><style>.cls-1{fill:#231f20;}.cls-2{fill:#ff671d;}.cls-3{fill:#fff;}</style></defs><title>trendyol evdekal</title><path class="cls-1" d="M234.32,272.51h-45c2.06,8.43,8.92,14.8,17.84,14.8a17.84,17.84,0,0,0,13.24-5.86l10.87.24a27.49,27.49,0,0,1-24.51,14.93c-15.48,0-27.63-13.43-27.63-28.62,0-15.67,11.95-28.51,27.83-28.51a27.79,27.79,0,0,1,27.63,27.92,45.89,45.89,0,0,1-.29,5.1ZM206.88,248.8c-8.82,0-16.95,7-17.54,15.87h35.08c-.59-8.91-8.72-15.87-17.54-15.87Z" transform="translate(-92.35 -178.68)"/><path class="cls-1" d="M279.37,295.24V265.75c0-9.21-2.74-16.95-13.53-16.95-10,0-14.3,7.74-14.3,16.85v29.59H241.35V241h9.51v5.78h.19c3.92-5.19,9.6-7.25,15.87-7.25,7.74,0,15,3,19.21,9.7,2.64,4.12,3.43,9.11,3.43,13.91v32.14Z" transform="translate(-92.35 -178.68)"/><path class="cls-1" d="M343.73,295.24V287.5h-.19c-4.51,6.27-11.66,9.12-19.2,9.12-16.27,0-28.23-12.15-28.23-28.32s11.76-28.81,28.23-28.81c6.85,0,14.1,2.65,18.42,8.13H343V222.73h10.19v72.51ZM324.92,248.8c-10.78,0-18.62,8.82-18.62,19.4,0,10.19,8.14,19.11,18.52,19.11a19,19,0,0,0,18.91-19.11c0-10.88-7.74-19.4-18.81-19.4Z" transform="translate(-92.35 -178.68)"/><polygon class="cls-1" points="290.27 134.69 279.69 134.69 287.62 115.48 265.98 62.27 276.94 62.27 292.91 104.41 309.28 62.27 320.25 62.27 290.27 134.69 290.27 134.69"/><path class="cls-1" d="M441.6,296.62c-16,0-29.29-12.84-29.29-28.91s13.61-28.22,29.29-28.22c15.87,0,29.3,12.35,29.3,28.42,0,15.48-12.84,28.71-29.3,28.71Zm0-47.82a19.26,19.26,0,1,0,19.11,19.11A19.15,19.15,0,0,0,441.6,248.8Z" transform="translate(-92.35 -178.68)"/><polygon class="cls-1" points="386.87 116.56 386.87 44.05 397.06 44.05 397.06 116.56 386.87 116.56 386.87 116.56"/><path class="cls-1" d="M102.42,284.53a15.35,15.35,0,0,0,1.66,4.2,12.36,12.36,0,0,0,2.5,2.88,17.82,17.82,0,0,0,12.15,4.27,27,27,0,0,0,13.34-3.43v-9.72a24,24,0,0,1-12,3.73c-5.18,0-7.81-3.15-7.81-9.37V250.53h17.09v-9.42H112.22V223.7H102.16v17.41H92.35v9.42h9.4V274.6a48.06,48.06,0,0,0,.67,9.93Z" transform="translate(-92.35 -178.68)"/><path class="cls-1" d="M164.08,250.06c3.15,0,6.62,1.75,10.31,5.22l5.52-9.2c-4.48-4.14-9.94-6-13.12-6h-.69c-3.64,0-9.74,0-14.72,8l-.21.33.05-7.32H140.69v53.82h10.53V266.79A18.8,18.8,0,0,1,155,255c2.53-3.31,5.57-5,9-5Z" transform="translate(-92.35 -178.68)"/><path class="cls-2" d="M384,228.64a.92.92,0,0,1-1-.74l-2.7-17.09c-.89-5.57,0-10.21,2.89-14s7.15-6,12.56-6.88L466.6,178.7a.92.92,0,0,1,1,.74l5.42,34.18a.94.94,0,0,1-.75,1l-88.31,14Z" transform="translate(-92.35 -178.68)"/><path class="cls-3" d="M407.72,210.58a5.42,5.42,0,0,1-4.48,4c-2.87.47-6.12-1.22-6.8-5.35-.6-3.69,1.37-6.66,4.8-7.23a5.33,5.33,0,0,1,5.51,2.46l3.43-.56a9.18,9.18,0,1,0,1,6.09l-3.44.56Z" transform="translate(-92.35 -178.68)"/><path class="cls-3" d="M420.93,195.94a9.28,9.28,0,0,0-7.85,10.49,9.44,9.44,0,1,0,7.85-10.49Zm2.51,15.36a6.37,6.37,0,1,1,5.2-7.35,6.35,6.35,0,0,1-5.2,7.35Z" transform="translate(-92.35 -178.68)"/><path class="cls-3" d="M462,207.4,460.32,197c-.75-4.57-3.82-6.87-8.21-6.15a6.09,6.09,0,0,0-5.2,3.81l-.08.17-.1-.15c-1.25-1.82-3.88-2.32-5.79-2a5.67,5.67,0,0,0-4.55,3.13l0,0-.2,0-.31-1.89-2.83.46,2.83,17.24,3.07-.51-1.57-9.62c-.59-3.56.57-5.53,3.54-6a3.76,3.76,0,0,1,3.6,1.14,6.45,6.45,0,0,1,1.34,3.52l1.57,9.59,3.08-.5-1.58-9.62c-.41-2.47-.39-5.38,3.38-6,2.77-.45,4.53,1.16,5.1,4.64L459,207.9l3.08-.5Z" transform="translate(-92.35 -178.68)"/><path class="cls-3" d="M392.84,217.54a2.49,2.49,0,1,1-2.48-2.49,2.49,2.49,0,0,1,2.48,2.49Z" transform="translate(-92.35 -178.68)"/><path class="cls-1" d="M324,339H319l-.69,4.12h5l-.73,4.43h-5l-1.18,7.21h-4.66l1.19-7.21h-4.66l-1.19,7.21h-4.61l1.18-7.21h-5l.74-4.43h5l.68-4.12H300l.73-4.47h5.07l1.18-7.17h4.62l-1.19,7.17h4.66l1.18-7.17h4.66l-1.18,7.17h4.93Zm-10.28,4.12.69-4.12h-4.66l-.69,4.12Z" transform="translate(-92.35 -178.68)"/><path class="cls-1" d="M333.41,348c.78,2.87,2.92,4.29,6.44,4.29A6.07,6.07,0,0,0,345,350l4.75,2.74c-2.24,3.24-5.58,4.88-10,4.88a12.27,12.27,0,0,1-9.09-3.42,11.71,11.71,0,0,1-3.43-8.63,11.84,11.84,0,0,1,3.38-8.59,11.54,11.54,0,0,1,8.68-3.47,10.76,10.76,0,0,1,8.27,3.47,12,12,0,0,1,3.29,8.59,15.17,15.17,0,0,1-.23,2.42ZM345,343.45a5.53,5.53,0,0,0-5.67-4.61,5.69,5.69,0,0,0-6,4.61Z" transform="translate(-92.35 -178.68)"/><path class="cls-1" d="M369.08,334.18h6.48L366.89,357h-6.72l-8.68-22.84H358l5.53,16Z" transform="translate(-92.35 -178.68)"/><path class="cls-1" d="M394.79,325h5.89v32h-5.89v-2.7a8.79,8.79,0,0,1-7.4,3.33,10.46,10.46,0,0,1-7.9-3.47,12.93,12.93,0,0,1,0-17.12,10.51,10.51,0,0,1,7.9-3.52,8.82,8.82,0,0,1,7.4,3.33Zm-6.3,27a6.17,6.17,0,0,0,4.52-1.78,6.45,6.45,0,0,0,1.78-4.66A6.26,6.26,0,0,0,393,341a6,6,0,0,0-4.52-1.82,6.16,6.16,0,0,0-4.57,1.82,6.26,6.26,0,0,0-1.78,4.62,6.45,6.45,0,0,0,1.78,4.66A6.33,6.33,0,0,0,388.49,352Z" transform="translate(-92.35 -178.68)"/><path class="cls-1" d="M411.05,348c.77,2.87,2.92,4.29,6.44,4.29A6,6,0,0,0,422.6,350l4.75,2.74c-2.23,3.24-5.57,4.88-10,4.88a12.27,12.27,0,0,1-9.09-3.42,11.67,11.67,0,0,1-3.43-8.63,11.8,11.8,0,0,1,3.38-8.59,11.53,11.53,0,0,1,8.68-3.47,10.78,10.78,0,0,1,8.27,3.47,12,12,0,0,1,3.28,8.59,16.35,16.35,0,0,1-.22,2.42Zm11.55-4.57a5.52,5.52,0,0,0-5.66-4.61,5.69,5.69,0,0,0-6,4.61Z" transform="translate(-92.35 -178.68)"/><path class="cls-1" d="M453.66,357h-6.85l-8.32-10.37V357H432.6V325h5.89v19.19l7.86-10.05h7l-9.18,11.28Z" transform="translate(-92.35 -178.68)"/><path class="cls-1" d="M472.29,334.18h5.89V357h-5.89v-2.7a8.93,8.93,0,0,1-7.44,3.33,10.37,10.37,0,0,1-7.86-3.47,12.93,12.93,0,0,1,0-17.12,10.42,10.42,0,0,1,7.86-3.52,9,9,0,0,1,7.44,3.33ZM465.94,352a6.13,6.13,0,0,0,4.52-1.78,6.29,6.29,0,0,0,1.83-4.66,6.11,6.11,0,0,0-1.83-4.62,6.52,6.52,0,0,0-9,0,6.26,6.26,0,0,0-1.78,4.62,6.45,6.45,0,0,0,1.78,4.66A6.15,6.15,0,0,0,465.94,352Z" transform="translate(-92.35 -178.68)"/><path class="cls-1" d="M483.52,357V323.67h5.89V357Z" transform="translate(-92.35 -178.68)"/></svg>